<svg width="90" height="91" viewBox="0 0 90 91" fill="none" xmlns="http://www.w3.org/2000/svg">
<path d="M22.5 63.5C18.75 63.5 15.5625 62.1875 12.9375 59.5625C10.3125 56.9375 9 53.75 9 50H0V36.5C0 31.55 1.7625 27.3125 5.2875 23.7875C8.8125 20.2625 13.05 18.5 18 18.5H36V41H51.75L67.5 21.425V9.5H54V0.5H67.5C69.975 0.5 72.0945 1.3805 73.8585 3.1415C75.6195 4.9055 76.5 7.025 76.5 9.5V24.575L56.25 50H36C36 53.75 34.6875 56.9375 32.0625 59.5625C29.4375 62.1875 26.25 63.5 22.5 63.5ZM22.5 54.5C23.775 54.5 24.8445 54.068 25.7085 53.204C26.5695 52.343 27 51.275 27 50H18C18 51.275 18.4305 52.343 19.2915 53.204C20.1555 54.068 21.225 54.5 22.5 54.5ZM13.5 14V5H36V14H13.5ZM76.5 63.5C72.75 63.5 69.5625 62.1875 66.9375 59.5625C64.3125 56.9375 63 53.75 63 50C63 46.25 64.3125 43.0625 66.9375 40.4375C69.5625 37.8125 72.75 36.5 76.5 36.5C80.25 36.5 83.4375 37.8125 86.0625 40.4375C88.6875 43.0625 90 46.25 90 50C90 53.75 88.6875 56.9375 86.0625 59.5625C83.4375 62.1875 80.25 63.5 76.5 63.5ZM76.5 54.5C77.775 54.5 78.843 54.068 79.704 53.204C80.568 52.343 81 51.275 81 50C81 48.725 80.568 47.6555 79.704 46.7915C78.843 45.9305 77.775 45.5 76.5 45.5C75.225 45.5 74.157 45.9305 73.296 46.7915C72.432 47.6555 72 48.725 72 50C72 51.275 72.432 52.343 73.296 53.204C74.157 54.068 75.225 54.5 76.5 54.5ZM49.5 90.5L22.5 77H40.5V68L67.5 81.5H49.5V90.5ZM9 41H27V27.5H18C15.525 27.5 13.407 28.3805 11.646 30.1415C9.882 31.9055 9 34.025 9 36.5V41Z" fill="#065DC2"/>
</svg>
