<svg width="82" height="82" viewBox="0 0 82 82" fill="none" xmlns="http://www.w3.org/2000/svg">
<path d="M41 68C42.575 68 43.9055 67.4555 44.9915 66.3665C46.0805 65.2805 46.625 63.95 46.625 62.375C46.625 60.8 46.0805 59.4695 44.9915 58.3835C43.9055 57.2945 42.575 56.75 41 56.75C39.425 56.75 38.0945 57.2945 37.0085 58.3835C35.9195 59.4695 35.375 60.8 35.375 62.375C35.375 63.95 35.9195 65.2805 37.0085 66.3665C38.0945 67.4555 39.425 68 41 68ZM36.95 50.675H45.275C45.275 47.975 45.575 45.9875 46.175 44.7125C46.775 43.4375 48.05 41.825 50 39.875C52.625 37.25 54.482 35.0555 55.571 33.2915C56.657 31.5305 57.2 29.525 57.2 27.275C57.2 23.3 55.85 20.093 53.15 17.654C50.45 15.218 46.8125 14 42.2375 14C38.1125 14 34.607 15.0125 31.721 17.0375C28.832 19.0625 26.825 21.875 25.7 25.475L33.125 28.4C33.65 26.375 34.7 24.743 36.275 23.504C37.85 22.268 39.6875 21.65 41.7875 21.65C43.8125 21.65 45.5 22.193 46.85 23.279C48.2 24.368 48.875 25.8125 48.875 27.6125C48.875 28.8875 48.4625 30.2375 47.6375 31.6625C46.8125 33.0875 45.425 34.6625 43.475 36.3875C41 38.5625 39.2945 40.643 38.3585 42.629C37.4195 44.618 36.95 47.3 36.95 50.675ZM9.5 81.5C7.025 81.5 4.9055 80.6195 3.1415 78.8585C1.3805 77.0945 0.5 74.975 0.5 72.5V9.5C0.5 7.025 1.3805 4.9055 3.1415 3.1415C4.9055 1.3805 7.025 0.5 9.5 0.5H72.5C74.975 0.5 77.0945 1.3805 78.8585 3.1415C80.6195 4.9055 81.5 7.025 81.5 9.5V72.5C81.5 74.975 80.6195 77.0945 78.8585 78.8585C77.0945 80.6195 74.975 81.5 72.5 81.5H9.5ZM9.5 72.5H72.5V9.5H9.5V72.5Z" fill="#065DC2"/>
</svg>
