<svg width="72" height="95" viewBox="0 0 72 95" fill="none" xmlns="http://www.w3.org/2000/svg">
<path d="M9 95C6.525 95 4.407 94.1195 2.646 92.3585C0.881999 90.5945 0 88.475 0 86V41C0 38.525 0.881999 36.4055 2.646 34.6415C4.407 32.8805 6.525 32 9 32H13.5V23C13.5 16.775 15.6945 11.468 20.0835 7.079C24.4695 2.693 29.775 0.5 36 0.5C42.225 0.5 47.532 2.693 51.921 7.079C56.307 11.468 58.5 16.775 58.5 23V32H63C65.475 32 67.5945 32.8805 69.3585 34.6415C71.1195 36.4055 72 38.525 72 41V86C72 88.475 71.1195 90.5945 69.3585 92.3585C67.5945 94.1195 65.475 95 63 95H9ZM9 86H63V41H9V86ZM36 72.5C38.475 72.5 40.5945 71.6195 42.3585 69.8585C44.1195 68.0945 45 65.975 45 63.5C45 61.025 44.1195 58.9055 42.3585 57.1415C40.5945 55.3805 38.475 54.5 36 54.5C33.525 54.5 31.407 55.3805 29.646 57.1415C27.882 58.9055 27 61.025 27 63.5C27 65.975 27.882 68.0945 29.646 69.8585C31.407 71.6195 33.525 72.5 36 72.5ZM22.5 32H49.5V23C49.5 19.25 48.1875 16.0625 45.5625 13.4375C42.9375 10.8125 39.75 9.5 36 9.5C32.25 9.5 29.0625 10.8125 26.4375 13.4375C23.8125 16.0625 22.5 19.25 22.5 23V32Z" fill="#065DC2"/>
</svg>
