<svg width="100" height="96" viewBox="0 0 100 96" fill="none" xmlns="http://www.w3.org/2000/svg">
<path d="M34.7 95.25L26.15 80.85L9.95 77.25L11.525 60.6L0.5 48L11.525 35.4L9.95 18.75L26.15 15.15L34.7 0.75L50 7.275L65.3 0.75L73.85 15.15L90.05 18.75L88.475 35.4L99.5 48L88.475 60.6L90.05 77.25L73.85 80.85L65.3 95.25L50 88.725L34.7 95.25ZM38.525 83.775L50 78.825L61.7 83.775L68 72.975L80.375 70.05L79.25 57.45L87.575 48L79.25 38.325L80.375 25.725L68 23.025L61.475 12.225L50 17.175L38.3 12.225L32 23.025L19.625 25.725L20.75 38.325L12.425 48L20.75 57.45L19.625 70.275L32 72.975L38.525 83.775ZM45.275 63.975L70.7 38.55L64.4 32.025L45.275 51.15L35.6 41.7L29.3 48L45.275 63.975Z" fill="#065DC2"/>
</svg>
